{
    "asset" : {
        "generator" : "Khronos glTF Blender I/O v1.1.46",
        "version" : "2.0"
    },
    "scene" : 0,
    "scenes" : [
        {
            "name" : "Scene",
            "nodes" : [
                0
            ]
        }
    ],
    "nodes" : [
        {
            "mesh" : 0,
            "name" : "wall_2"
        }
    ],
    "meshes" : [
        {
            "name" : "Cube.003",
            "primitives" : [
                {
                    "attributes" : {
                        "POSITION" : 0,
                        "NORMAL" : 1,
                        "TEXCOORD_0" : 2,
                        "COLOR_0" : 3
                    },
                    "indices" : 4
                }
            ]
        }
    ],
    "accessors" : [
        {
            "bufferView" : 0,
            "componentType" : 5126,
            "count" : 1176,
            "max" : [
                523.9949340820312,
                263.13946533203125,
                2004.08544921875
            ],
            "min" : [
                -523.9949340820312,
                -263.1394958496094,
                -54.41276931762695
            ],
            "type" : "VEC3"
        },
        {
            "bufferView" : 1,
            "componentType" : 5126,
            "count" : 1176,
            "type" : "VEC3"
        },
        {
            "bufferView" : 2,
            "componentType" : 5126,
            "count" : 1176,
            "type" : "VEC2"
        },
        {
            "bufferView" : 3,
            "componentType" : 5126,
            "count" : 1176,
            "type" : "VEC4"
        },
        {
            "bufferView" : 4,
            "componentType" : 5123,
            "count" : 1176,
            "type" : "SCALAR"
        }
    ],
    "bufferViews" : [
        {
            "buffer" : 0,
            "byteLength" : 14112,
            "byteOffset" : 0
        },
        {
            "buffer" : 0,
            "byteLength" : 14112,
            "byteOffset" : 14112
        },
        {
            "buffer" : 0,
            "byteLength" : 9408,
            "byteOffset" : 28224
        },
        {
            "buffer" : 0,
            "byteLength" : 18816,
            "byteOffset" : 37632
        },
        {
            "buffer" : 0,
            "byteLength" : 2352,
            "byteOffset" : 56448
        }
    ],
    "buffers" : [
        {
            "byteLength" : 58800,
            "uri" : "data:application/octet-stream;base64,"
        }
    ]
}
