{
    "asset" : {
        "generator" : "Khronos glTF Blender I/O v1.1.46",
        "version" : "2.0"
    },
    "scene" : 0,
    "scenes" : [
        {
            "name" : "Scene",
            "nodes" : [
                0
            ]
        }
    ],
    "nodes" : [
        {
            "mesh" : 0,
            "name" : "Rusty Repeater.001"
        }
    ],
    "meshes" : [
        {
            "name" : "Cube.010",
            "primitives" : [
                {
                    "attributes" : {
                        "POSITION" : 0,
                        "NORMAL" : 1,
                        "TEXCOORD_0" : 2,
                        "COLOR_0" : 3
                    },
                    "indices" : 4
                }
            ]
        }
    ],
    "accessors" : [
        {
            "bufferView" : 0,
            "componentType" : 5126,
            "count" : 4495,
            "max" : [
                0.3331886827945709,
                0.021347377449274063,
                0.04556207358837128
            ],
            "min" : [
                -0.16923977434635162,
                -0.032385628670454025,
                -0.04194214195013046
            ],
            "type" : "VEC3"
        },
        {
            "bufferView" : 1,
            "componentType" : 5126,
            "count" : 4495,
            "type" : "VEC3"
        },
        {
            "bufferView" : 2,
            "componentType" : 5126,
            "count" : 4495,
            "type" : "VEC2"
        },
        {
            "bufferView" : 3,
            "componentType" : 5126,
            "count" : 4495,
            "type" : "VEC4"
        },
        {
            "bufferView" : 4,
            "componentType" : 5123,
            "count" : 4686,
            "type" : "SCALAR"
        }
    ],
    "bufferViews" : [
        {
            "buffer" : 0,
            "byteLength" : 53940,
            "byteOffset" : 0
        },
        {
            "buffer" : 0,
            "byteLength" : 53940,
            "byteOffset" : 53940
        },
        {
            "buffer" : 0,
            "byteLength" : 35960,
            "byteOffset" : 107880
        },
        {
            "buffer" : 0,
            "byteLength" : 71920,
            "byteOffset" : 143840
        },
        {
            "buffer" : 0,
            "byteLength" : 9372,
            "byteOffset" : 215760
        }
    ],
    "buffers" : [
        {
            "byteLength" : 225132,
            "uri" : "data:application/octet-stream;base64,"
        }
    ]
}
