{
    "asset" : {
        "generator" : "Khronos glTF Blender I/O v1.1.46",
        "version" : "2.0"
    },
    "scene" : 0,
    "scenes" : [
        {
            "name" : "Scene",
            "nodes" : [
                0
            ]
        }
    ],
    "nodes" : [
        {
            "mesh" : 0,
            "name" : "Gate_Open"
        }
    ],
    "meshes" : [
        {
            "name" : "Cube.013",
            "primitives" : [
                {
                    "attributes" : {
                        "POSITION" : 0,
                        "NORMAL" : 1,
                        "TEXCOORD_0" : 2
                    },
                    "indices" : 3
                }
            ]
        }
    ],
    "accessors" : [
        {
            "bufferView" : 0,
            "componentType" : 5126,
            "count" : 503,
            "max" : [
                0.6338033080101013,
                0.6640362739562988,
                0.6351812481880188
            ],
            "min" : [
                -0.4975510239601135,
                -0.041334815323352814,
                -0.031753819435834885
            ],
            "type" : "VEC3"
        },
        {
            "bufferView" : 1,
            "componentType" : 5126,
            "count" : 503,
            "type" : "VEC3"
        },
        {
            "bufferView" : 2,
            "componentType" : 5126,
            "count" : 503,
            "type" : "VEC2"
        },
        {
            "bufferView" : 3,
            "componentType" : 5123,
            "count" : 1842,
            "type" : "SCALAR"
        }
    ],
    "bufferViews" : [
        {
            "buffer" : 0,
            "byteLength" : 6036,
            "byteOffset" : 0
        },
        {
            "buffer" : 0,
            "byteLength" : 6036,
            "byteOffset" : 6036
        },
        {
            "buffer" : 0,
            "byteLength" : 4024,
            "byteOffset" : 12072
        },
        {
            "buffer" : 0,
            "byteLength" : 3684,
            "byteOffset" : 16096
        }
    ],
    "buffers" : [
        {
            "byteLength" : 19780,
            "uri" : "data:application/octet-stream;base64,"
        }
    ]
}
