{
    "asset" : {
        "generator" : "Khronos glTF Blender I/O v1.1.46",
        "version" : "2.0"
    },
    "scene" : 0,
    "scenes" : [
        {
            "name" : "Scene",
            "nodes" : [
                0
            ]
        }
    ],
    "nodes" : [
        {
            "mesh" : 0,
            "name" : "StoneWall_doorway_open"
        }
    ],
    "materials" : [
        {
            "doubleSided" : true,
            "emissiveFactor" : [
                0,
                0,
                0
            ],
            "name" : "Stone_wall1.001",
            "normalTexture" : {
                "index" : 0,
                "scale" : 0.30000001192092896,
                "texCoord" : 0
            },
            "pbrMetallicRoughness" : {
                "baseColorTexture" : {
                    "index" : 1,
                    "texCoord" : 0
                },
                "metallicFactor" : 0,
                "roughnessFactor" : 0.9818181395530701
            }
        },
        {
            "doubleSided" : true,
            "emissiveFactor" : [
                0,
                0,
                0
            ],
            "name" : "WoodDoor",
            "normalTexture" : {
                "index" : 2,
                "texCoord" : 0
            },
            "pbrMetallicRoughness" : {
                "baseColorTexture" : {
                    "index" : 3,
                    "texCoord" : 0
                },
                "metallicFactor" : 0,
                "roughnessFactor" : 0.5
            }
        },
        {
            "doubleSided" : true,
            "emissiveFactor" : [
                0,
                0,
                0
            ],
            "name" : "Metal",
            "pbrMetallicRoughness" : {
                "baseColorFactor" : [
                    0.08001182228326797,
                    0.08001182228326797,
                    0.08001182228326797,
                    1
                ],
                "metallicFactor" : 0.8416666984558105,
                "roughnessFactor" : 0.49166667461395264
            }
        }
    ],
    "meshes" : [
        {
            "name" : "Cube.019",
            "primitives" : [
                {
                    "attributes" : {
                        "POSITION" : 0,
                        "NORMAL" : 1,
                        "TEXCOORD_0" : 2
                    },
                    "indices" : 3,
                    "material" : 0
                },
                {
                    "attributes" : {
                        "POSITION" : 4,
                        "NORMAL" : 5,
                        "TEXCOORD_0" : 6
                    },
                    "indices" : 7,
                    "material" : 1
                },
                {
                    "attributes" : {
                        "POSITION" : 8,
                        "NORMAL" : 9,
                        "TEXCOORD_0" : 10
                    },
                    "indices" : 11,
                    "material" : 2
                }
            ]
        }
    ],
    "textures" : [
        {
            "source" : 0
        },
        {
            "source" : 1
        },
        {
            "source" : 2
        },
        {
            "source" : 3
        }
    ],
    "images" : [
        {
            "bufferView" : 4,
            "mimeType" : "image/png",
            "name" : "Image_0"
        },
        {
            "bufferView" : 5,
            "mimeType" : "image/png",
            "name" : "Image_1"
        },
        {
            "bufferView" : 10,
            "mimeType" : "image/png",
            "name" : "Image_2"
        },
        {
            "bufferView" : 11,
            "mimeType" : "image/png",
            "name" : "Image_3"
        }
    ],
    "accessors" : [
        {
            "bufferView" : 0,
            "componentType" : 5126,
            "count" : 284,
            "max" : [
                0.50679612159729,
                0.10834932327270508,
                1.998729944229126
            ],
            "min" : [
                -0.4932037889957428,
                -0.11223095655441284,
                0.0048542870208621025
            ],
            "type" : "VEC3"
        },
        {
            "bufferView" : 1,
            "componentType" : 5126,
            "count" : 284,
            "type" : "VEC3"
        },
        {
            "bufferView" : 2,
            "componentType" : 5126,
            "count" : 284,
            "type" : "VEC2"
        },
        {
            "bufferView" : 3,
            "componentType" : 5123,
            "count" : 588,
            "type" : "SCALAR"
        },
        {
            "bufferView" : 6,
            "componentType" : 5126,
            "count" : 40,
            "max" : [
                0.44325879216194153,
                0.7444730997085571,
                1.552293300628662
            ],
            "min" : [
                0.3573560416698456,
                -0.010447919368743896,
                0.020728088915348053
            ],
            "type" : "VEC3"
        },
        {
            "bufferView" : 7,
            "componentType" : 5126,
            "count" : 40,
            "type" : "VEC3"
        },
        {
            "bufferView" : 8,
            "componentType" : 5126,
            "count" : 40,
            "type" : "VEC2"
        },
        {
            "bufferView" : 9,
            "componentType" : 5123,
            "count" : 66,
            "type" : "SCALAR"
        },
        {
            "bufferView" : 12,
            "componentType" : 5126,
            "count" : 62,
            "max" : [
                0.45920875668525696,
                0.6794801950454712,
                0.8026336431503296
            ],
            "min" : [
                0.36993274092674255,
                0.507840096950531,
                0.6353982090950012
            ],
            "type" : "VEC3"
        },
        {
            "bufferView" : 13,
            "componentType" : 5126,
            "count" : 62,
            "type" : "VEC3"
        },
        {
            "bufferView" : 14,
            "componentType" : 5126,
            "count" : 62,
            "type" : "VEC2"
        },
        {
            "bufferView" : 15,
            "componentType" : 5123,
            "count" : 192,
            "type" : "SCALAR"
        }
    ],
    "bufferViews" : [
        {
            "buffer" : 0,
            "byteLength" : 3408,
            "byteOffset" : 0
        },
        {
            "buffer" : 0,
            "byteLength" : 3408,
            "byteOffset" : 3408
        },
        {
            "buffer" : 0,
            "byteLength" : 2272,
            "byteOffset" : 6816
        },
        {
            "buffer" : 0,
            "byteLength" : 1176,
            "byteOffset" : 9088
        },
        {
            "buffer" : 0,
            "byteLength" : 106746,
            "byteOffset" : 10264
        },
        {
            "buffer" : 0,
            "byteLength" : 75223,
            "byteOffset" : 117012
        },
        {
            "buffer" : 0,
            "byteLength" : 480,
            "byteOffset" : 192236
        },
        {
            "buffer" : 0,
            "byteLength" : 480,
            "byteOffset" : 192716
        },
        {
            "buffer" : 0,
            "byteLength" : 320,
            "byteOffset" : 193196
        },
        {
            "buffer" : 0,
            "byteLength" : 132,
            "byteOffset" : 193516
        },
        {
            "buffer" : 0,
            "byteLength" : 115202,
            "byteOffset" : 193648
        },
        {
            "buffer" : 0,
            "byteLength" : 80911,
            "byteOffset" : 308852
        },
        {
            "buffer" : 0,
            "byteLength" : 744,
            "byteOffset" : 389764
        },
        {
            "buffer" : 0,
            "byteLength" : 744,
            "byteOffset" : 390508
        },
        {
            "buffer" : 0,
            "byteLength" : 496,
            "byteOffset" : 391252
        },
        {
            "buffer" : 0,
            "byteLength" : 384,
            "byteOffset" : 391748
        }
    ],
    "buffers" : [
        {
            "byteLength" : 392132,
            "uri" : "data:application/octet-stream;base64,"
        }
    ]
}
