{
    "asset" : {
        "generator" : "Khronos glTF Blender I/O v1.1.46",
        "version" : "2.0"
    },
    "scene" : 0,
    "scenes" : [
        {
            "name" : "Scene",
            "nodes" : [
                0
            ]
        }
    ],
    "nodes" : [
        {
            "mesh" : 0,
            "name" : "Wall_3"
        }
    ],
    "meshes" : [
        {
            "name" : "Cube.005",
            "primitives" : [
                {
                    "attributes" : {
                        "POSITION" : 0,
                        "NORMAL" : 1,
                        "TEXCOORD_0" : 2,
                        "COLOR_0" : 3
                    },
                    "indices" : 4
                }
            ]
        }
    ],
    "accessors" : [
        {
            "bufferView" : 0,
            "componentType" : 5126,
            "count" : 1848,
            "max" : [
                512.3639526367188,
                133.8732452392578,
                2004.2025146484375
            ],
            "min" : [
                -512.3639526367188,
                -133.8733367919922,
                -0.26391366124153137
            ],
            "type" : "VEC3"
        },
        {
            "bufferView" : 1,
            "componentType" : 5126,
            "count" : 1848,
            "type" : "VEC3"
        },
        {
            "bufferView" : 2,
            "componentType" : 5126,
            "count" : 1848,
            "type" : "VEC2"
        },
        {
            "bufferView" : 3,
            "componentType" : 5126,
            "count" : 1848,
            "type" : "VEC4"
        },
        {
            "bufferView" : 4,
            "componentType" : 5123,
            "count" : 1848,
            "type" : "SCALAR"
        }
    ],
    "bufferViews" : [
        {
            "buffer" : 0,
            "byteLength" : 22176,
            "byteOffset" : 0
        },
        {
            "buffer" : 0,
            "byteLength" : 22176,
            "byteOffset" : 22176
        },
        {
            "buffer" : 0,
            "byteLength" : 14784,
            "byteOffset" : 44352
        },
        {
            "buffer" : 0,
            "byteLength" : 29568,
            "byteOffset" : 59136
        },
        {
            "buffer" : 0,
            "byteLength" : 3696,
            "byteOffset" : 88704
        }
    ],
    "buffers" : [
        {
            "byteLength" : 92400,
            "uri" : "data:application/octet-stream;base64,"
        }
    ]
}
