{
    "asset" : {
        "generator" : "Khronos glTF Blender I/O v1.1.46",
        "version" : "2.0"
    },
    "scene" : 0,
    "scenes" : [
        {
            "name" : "Scene",
            "nodes" : [
                4
            ]
        }
    ],
    "nodes" : [
        {
            "name" : "Cogguwheelu_end",
            "rotation" : [
                9.53275103982281e-15,
                5.7311506651558375e-09,
                -1.6741111275031528e-10,
                1
            ],
            "translation" : [
                2.1491723600775003e-07,
                296.21630859375,
                1.742546714922355e-06
            ]
        },
        {
            "children" : [
                0
            ],
            "name" : "Cogguwheelu",
            "rotation" : [
                -0.7071055173873901,
                0.7071055769920349,
                0.001321936259046197,
                0.0013238395331427455
            ],
            "scale" : [
                0.9999998807907104,
                0.9999999403953552,
                0.9999998807907104
            ],
            "translation" : [
                -4.8591569678547997e-14,
                561.7135620117188,
                5.550699234008789
            ]
        },
        {
            "children" : [
                1
            ],
            "name" : "Root",
            "rotation" : [
                -0.7071065902709961,
                5.76011558450773e-08,
                -5.760118781950041e-08,
                0.7071069478988647
            ]
        },
        {
            "mesh" : 0,
            "name" : "Turret",
            "skin" : 0
        },
        {
            "children" : [
                3,
                2
            ],
            "name" : "Armature"
        }
    ],
    "animations" : [
        {
            "channels" : [
                {
                    "sampler" : 0,
                    "target" : {
                        "node" : 1,
                        "path" : "translation"
                    }
                },
                {
                    "sampler" : 1,
                    "target" : {
                        "node" : 1,
                        "path" : "rotation"
                    }
                },
                {
                    "sampler" : 2,
                    "target" : {
                        "node" : 1,
                        "path" : "scale"
                    }
                },
                {
                    "sampler" : 3,
                    "target" : {
                        "node" : 2,
                        "path" : "translation"
                    }
                },
                {
                    "sampler" : 4,
                    "target" : {
                        "node" : 2,
                        "path" : "rotation"
                    }
                },
                {
                    "sampler" : 5,
                    "target" : {
                        "node" : 2,
                        "path" : "scale"
                    }
                },
                {
                    "sampler" : 6,
                    "target" : {
                        "node" : 0,
                        "path" : "translation"
                    }
                },
                {
                    "sampler" : 7,
                    "target" : {
                        "node" : 0,
                        "path" : "rotation"
                    }
                },
                {
                    "sampler" : 8,
                    "target" : {
                        "node" : 0,
                        "path" : "scale"
                    }
                }
            ],
            "name" : "Armature|Armature|CogheelStartAnimation|Armature|CogheelStartAn",
            "samplers" : [
                {
                    "input" : 8,
                    "interpolation" : "LINEAR",
                    "output" : 9
                },
                {
                    "input" : 8,
                    "interpolation" : "LINEAR",
                    "output" : 10
                },
                {
                    "input" : 8,
                    "interpolation" : "LINEAR",
                    "output" : 11
                },
                {
                    "input" : 8,
                    "interpolation" : "LINEAR",
                    "output" : 12
                },
                {
                    "input" : 8,
                    "interpolation" : "LINEAR",
                    "output" : 13
                },
                {
                    "input" : 8,
                    "interpolation" : "LINEAR",
                    "output" : 14
                },
                {
                    "input" : 8,
                    "interpolation" : "LINEAR",
                    "output" : 15
                },
                {
                    "input" : 8,
                    "interpolation" : "LINEAR",
                    "output" : 16
                },
                {
                    "input" : 8,
                    "interpolation" : "LINEAR",
                    "output" : 17
                }
            ]
        }
    ],
    "meshes" : [
        {
            "name" : "Cube.025",
            "primitives" : [
                {
                    "attributes" : {
                        "POSITION" : 0,
                        "NORMAL" : 1,
                        "TEXCOORD_0" : 2,
                        "COLOR_0" : 3,
                        "JOINTS_0" : 4,
                        "WEIGHTS_0" : 5
                    },
                    "indices" : 6
                }
            ]
        }
    ],
    "skins" : [
        {
            "inverseBindMatrices" : 7,
            "joints" : [
                2,
                1,
                0
            ],
            "name" : "Armature"
        }
    ],
    "accessors" : [
        {
            "bufferView" : 0,
            "componentType" : 5126,
            "count" : 3964,
            "max" : [
                537.7677612304688,
                521.5044555664062,
                68.01292419433594
            ],
            "min" : [
                -589.6808471679688,
                -542.1838989257812,
                -1081.537841796875
            ],
            "type" : "VEC3"
        },
        {
            "bufferView" : 1,
            "componentType" : 5126,
            "count" : 3964,
            "type" : "VEC3"
        },
        {
            "bufferView" : 2,
            "componentType" : 5126,
            "count" : 3964,
            "type" : "VEC2"
        },
        {
            "bufferView" : 3,
            "componentType" : 5126,
            "count" : 3964,
            "type" : "VEC4"
        },
        {
            "bufferView" : 4,
            "componentType" : 5123,
            "count" : 3964,
            "type" : "VEC4"
        },
        {
            "bufferView" : 5,
            "componentType" : 5126,
            "count" : 3964,
            "type" : "VEC4"
        },
        {
            "bufferView" : 6,
            "componentType" : 5123,
            "count" : 3984,
            "type" : "SCALAR"
        },
        {
            "bufferView" : 7,
            "componentType" : 5126,
            "count" : 3,
            "type" : "MAT4"
        },
        {
            "bufferView" : 8,
            "componentType" : 5126,
            "count" : 97,
            "max" : [
                4.083333333333333
            ],
            "min" : [
                0.08333333333333333
            ],
            "type" : "SCALAR"
        },
        {
            "bufferView" : 9,
            "componentType" : 5126,
            "count" : 97,
            "type" : "VEC3"
        },
        {
            "bufferView" : 10,
            "componentType" : 5126,
            "count" : 97,
            "type" : "VEC4"
        },
        {
            "bufferView" : 11,
            "componentType" : 5126,
            "count" : 97,
            "type" : "VEC3"
        },
        {
            "bufferView" : 12,
            "componentType" : 5126,
            "count" : 97,
            "type" : "VEC3"
        },
        {
            "bufferView" : 13,
            "componentType" : 5126,
            "count" : 97,
            "type" : "VEC4"
        },
        {
            "bufferView" : 14,
            "componentType" : 5126,
            "count" : 97,
            "type" : "VEC3"
        },
        {
            "bufferView" : 15,
            "componentType" : 5126,
            "count" : 97,
            "type" : "VEC3"
        },
        {
            "bufferView" : 16,
            "componentType" : 5126,
            "count" : 97,
            "type" : "VEC4"
        },
        {
            "bufferView" : 17,
            "componentType" : 5126,
            "count" : 97,
            "type" : "VEC3"
        }
    ],
    "bufferViews" : [
        {
            "buffer" : 0,
            "byteLength" : 47568,
            "byteOffset" : 0
        },
        {
            "buffer" : 0,
            "byteLength" : 47568,
            "byteOffset" : 47568
        },
        {
            "buffer" : 0,
            "byteLength" : 31712,
            "byteOffset" : 95136
        },
        {
            "buffer" : 0,
            "byteLength" : 63424,
            "byteOffset" : 126848
        },
        {
            "buffer" : 0,
            "byteLength" : 31712,
            "byteOffset" : 190272
        },
        {
            "buffer" : 0,
            "byteLength" : 63424,
            "byteOffset" : 221984
        },
        {
            "buffer" : 0,
            "byteLength" : 7968,
            "byteOffset" : 285408
        },
        {
            "buffer" : 0,
            "byteLength" : 192,
            "byteOffset" : 293376
        },
        {
            "buffer" : 0,
            "byteLength" : 388,
            "byteOffset" : 293568
        },
        {
            "buffer" : 0,
            "byteLength" : 1164,
            "byteOffset" : 293956
        },
        {
            "buffer" : 0,
            "byteLength" : 1552,
            "byteOffset" : 295120
        },
        {
            "buffer" : 0,
            "byteLength" : 1164,
            "byteOffset" : 296672
        },
        {
            "buffer" : 0,
            "byteLength" : 1164,
            "byteOffset" : 297836
        },
        {
            "buffer" : 0,
            "byteLength" : 1552,
            "byteOffset" : 299000
        },
        {
            "buffer" : 0,
            "byteLength" : 1164,
            "byteOffset" : 300552
        },
        {
            "buffer" : 0,
            "byteLength" : 1164,
            "byteOffset" : 301716
        },
        {
            "buffer" : 0,
            "byteLength" : 1552,
            "byteOffset" : 302880
        },
        {
            "buffer" : 0,
            "byteLength" : 1164,
            "byteOffset" : 304432
        }
    ],
    "buffers" : [
        {
            "byteLength" : 305596,
            "uri" : "data:application/octet-stream;base64,"
        }
    ]
}
