{
    "asset" : {
        "generator" : "Khronos glTF Blender I/O v1.1.46",
        "version" : "2.0"
    },
    "scene" : 0,
    "scenes" : [
        {
            "name" : "Scene",
            "nodes" : [
                0
            ]
        }
    ],
    "nodes" : [
        {
            "mesh" : 0,
            "name" : "Crenel_Tier_1"
        }
    ],
    "meshes" : [
        {
            "name" : "Cylinder.001",
            "primitives" : [
                {
                    "attributes" : {
                        "POSITION" : 0,
                        "NORMAL" : 1,
                        "TEXCOORD_0" : 2,
                        "COLOR_0" : 3
                    },
                    "indices" : 4
                }
            ]
        }
    ],
    "accessors" : [
        {
            "bufferView" : 0,
            "componentType" : 5126,
            "count" : 2171,
            "max" : [
                499.9996337890625,
                177.59568786621094,
                2004.0850830078125
            ],
            "min" : [
                -499.9997253417969,
                -181.1359405517578,
                12.450663566589355
            ],
            "type" : "VEC3"
        },
        {
            "bufferView" : 1,
            "componentType" : 5126,
            "count" : 2171,
            "type" : "VEC3"
        },
        {
            "bufferView" : 2,
            "componentType" : 5126,
            "count" : 2171,
            "type" : "VEC2"
        },
        {
            "bufferView" : 3,
            "componentType" : 5126,
            "count" : 2171,
            "type" : "VEC4"
        },
        {
            "bufferView" : 4,
            "componentType" : 5123,
            "count" : 2334,
            "type" : "SCALAR"
        }
    ],
    "bufferViews" : [
        {
            "buffer" : 0,
            "byteLength" : 26052,
            "byteOffset" : 0
        },
        {
            "buffer" : 0,
            "byteLength" : 26052,
            "byteOffset" : 26052
        },
        {
            "buffer" : 0,
            "byteLength" : 17368,
            "byteOffset" : 52104
        },
        {
            "buffer" : 0,
            "byteLength" : 34736,
            "byteOffset" : 69472
        },
        {
            "buffer" : 0,
            "byteLength" : 4668,
            "byteOffset" : 104208
        }
    ],
    "buffers" : [
        {
            "byteLength" : 108876,
            "uri" : "data:application/octet-stream;base64,"
        }
    ]
}
