{
    "asset" : {
        "generator" : "Khronos glTF Blender I/O v1.1.46",
        "version" : "2.0"
    },
    "scene" : 0,
    "scenes" : [
        {
            "name" : "Scene",
            "nodes" : [
                0
            ]
        }
    ],
    "nodes" : [
        {
            "mesh" : 0,
            "name" : "Platform"
        }
    ],
    "meshes" : [
        {
            "name" : "Cube.014",
            "primitives" : [
                {
                    "attributes" : {
                        "POSITION" : 0,
                        "NORMAL" : 1,
                        "TEXCOORD_0" : 2,
                        "COLOR_0" : 3
                    },
                    "indices" : 4
                }
            ]
        }
    ],
    "accessors" : [
        {
            "bufferView" : 0,
            "componentType" : 5126,
            "count" : 2220,
            "max" : [
                12,
                12.000000953674316,
                139.02593994140625
            ],
            "min" : [
                -12,
                -12,
                -0.6102727055549622
            ],
            "type" : "VEC3"
        },
        {
            "bufferView" : 1,
            "componentType" : 5126,
            "count" : 2220,
            "type" : "VEC3"
        },
        {
            "bufferView" : 2,
            "componentType" : 5126,
            "count" : 2220,
            "type" : "VEC2"
        },
        {
            "bufferView" : 3,
            "componentType" : 5126,
            "count" : 2220,
            "type" : "VEC4"
        },
        {
            "bufferView" : 4,
            "componentType" : 5123,
            "count" : 2250,
            "type" : "SCALAR"
        }
    ],
    "bufferViews" : [
        {
            "buffer" : 0,
            "byteLength" : 26640,
            "byteOffset" : 0
        },
        {
            "buffer" : 0,
            "byteLength" : 26640,
            "byteOffset" : 26640
        },
        {
            "buffer" : 0,
            "byteLength" : 17760,
            "byteOffset" : 53280
        },
        {
            "buffer" : 0,
            "byteLength" : 35520,
            "byteOffset" : 71040
        },
        {
            "buffer" : 0,
            "byteLength" : 4500,
            "byteOffset" : 106560
        }
    ],
    "buffers" : [
        {
            "byteLength" : 111060,
            "uri" : "data:application/octet-stream;base64,"
        }
    ]
}
