{
    "asset" : {
        "generator" : "Khronos glTF Blender I/O v1.1.45",
        "version" : "2.0"
    },
    "scene" : 0,
    "scenes" : [
        {
            "name" : "Scene",
            "nodes" : [
                0
            ]
        }
    ],
    "nodes" : [
        {
            "mesh" : 0,
            "name" : "ChoppingBlock"
        }
    ],
    "materials" : [
        {
            "doubleSided" : true,
            "emissiveFactor" : [
                0,
                0,
                0
            ],
            "name" : "ChoppingBlock",
            "pbrMetallicRoughness" : {
                "baseColorFactor" : [
                    0.800000011920929,
                    0.800000011920929,
                    0.800000011920929,
                    1
                ],
                "metallicFactor" : 0,
                "roughnessFactor" : 0.5
            }
        }
    ],
    "meshes" : [
        {
            "name" : "Plane",
            "primitives" : [
                {
                    "attributes" : {
                        "POSITION" : 0,
                        "NORMAL" : 1,
                        "TEXCOORD_0" : 2,
                        "COLOR_0" : 3
                    },
                    "indices" : 4,
                    "material" : 0
                }
            ]
        }
    ],
    "accessors" : [
        {
            "bufferView" : 0,
            "componentType" : 5126,
            "count" : 3372,
            "max" : [
                0.4210454225540161,
                0.41270992159843445,
                0.6323427557945251
            ],
            "min" : [
                -0.4040847420692444,
                -0.3689936399459839,
                -0.03827701508998871
            ],
            "type" : "VEC3"
        },
        {
            "bufferView" : 1,
            "componentType" : 5126,
            "count" : 3372,
            "type" : "VEC3"
        },
        {
            "bufferView" : 2,
            "componentType" : 5126,
            "count" : 3372,
            "type" : "VEC2"
        },
        {
            "bufferView" : 3,
            "componentType" : 5126,
            "count" : 3372,
            "type" : "VEC4"
        },
        {
            "bufferView" : 4,
            "componentType" : 5123,
            "count" : 3372,
            "type" : "SCALAR"
        }
    ],
    "bufferViews" : [
        {
            "buffer" : 0,
            "byteLength" : 40464,
            "byteOffset" : 0
        },
        {
            "buffer" : 0,
            "byteLength" : 40464,
            "byteOffset" : 40464
        },
        {
            "buffer" : 0,
            "byteLength" : 26976,
            "byteOffset" : 80928
        },
        {
            "buffer" : 0,
            "byteLength" : 53952,
            "byteOffset" : 107904
        },
        {
            "buffer" : 0,
            "byteLength" : 6744,
            "byteOffset" : 161856
        }
    ],
    "buffers" : [
        {
            "byteLength" : 168600,
            "uri" : "data:application/octet-stream;base64,"
        }
    ]
}
