{
    "asset" : {
        "generator" : "Khronos glTF Blender I/O v1.1.46",
        "version" : "2.0"
    },
    "scene" : 0,
    "scenes" : [
        {
            "name" : "Scene",
            "nodes" : [
                0
            ]
        }
    ],
    "nodes" : [
        {
            "mesh" : 0,
            "name" : "Waterpipe_input_output"
        }
    ],
    "meshes" : [
        {
            "name" : "Cylinder.012",
            "primitives" : [
                {
                    "attributes" : {
                        "POSITION" : 0,
                        "NORMAL" : 1,
                        "TEXCOORD_0" : 2,
                        "COLOR_0" : 3
                    },
                    "indices" : 4
                }
            ]
        }
    ],
    "accessors" : [
        {
            "bufferView" : 0,
            "componentType" : 5126,
            "count" : 4402,
            "max" : [
                377.72198486328125,
                350.8312072753906,
                1751.9390869140625
            ],
            "min" : [
                -424.2234802246094,
                -283.7412414550781,
                -29.455398559570312
            ],
            "type" : "VEC3"
        },
        {
            "bufferView" : 1,
            "componentType" : 5126,
            "count" : 4402,
            "type" : "VEC3"
        },
        {
            "bufferView" : 2,
            "componentType" : 5126,
            "count" : 4402,
            "type" : "VEC2"
        },
        {
            "bufferView" : 3,
            "componentType" : 5126,
            "count" : 4402,
            "type" : "VEC4"
        },
        {
            "bufferView" : 4,
            "componentType" : 5123,
            "count" : 4422,
            "type" : "SCALAR"
        }
    ],
    "bufferViews" : [
        {
            "buffer" : 0,
            "byteLength" : 52824,
            "byteOffset" : 0
        },
        {
            "buffer" : 0,
            "byteLength" : 52824,
            "byteOffset" : 52824
        },
        {
            "buffer" : 0,
            "byteLength" : 35216,
            "byteOffset" : 105648
        },
        {
            "buffer" : 0,
            "byteLength" : 70432,
            "byteOffset" : 140864
        },
        {
            "buffer" : 0,
            "byteLength" : 8844,
            "byteOffset" : 211296
        }
    ],
    "buffers" : [
        {
            "byteLength" : 220140,
            "uri" : "data:application/octet-stream;base64,"
        }
    ]
}
