{
    "asset" : {
        "generator" : "Khronos glTF Blender I/O v1.1.46",
        "version" : "2.0"
    },
    "scene" : 0,
    "scenes" : [
        {
            "name" : "Scene",
            "nodes" : [
                0
            ]
        }
    ],
    "nodes" : [
        {
            "mesh" : 0,
            "name" : "Salvage Gun"
        }
    ],
    "meshes" : [
        {
            "name" : "Cube.012",
            "primitives" : [
                {
                    "attributes" : {
                        "POSITION" : 0,
                        "NORMAL" : 1,
                        "TEXCOORD_0" : 2,
                        "COLOR_0" : 3
                    },
                    "indices" : 4
                }
            ]
        }
    ],
    "accessors" : [
        {
            "bufferView" : 0,
            "componentType" : 5126,
            "count" : 2280,
            "max" : [
                0.11447704583406448,
                0.014592834748327732,
                0.08759842067956924
            ],
            "min" : [
                -0.022115366533398628,
                -0.019696040078997612,
                0.0007235999801196158
            ],
            "type" : "VEC3"
        },
        {
            "bufferView" : 1,
            "componentType" : 5126,
            "count" : 2280,
            "type" : "VEC3"
        },
        {
            "bufferView" : 2,
            "componentType" : 5126,
            "count" : 2280,
            "type" : "VEC2"
        },
        {
            "bufferView" : 3,
            "componentType" : 5126,
            "count" : 2280,
            "type" : "VEC4"
        },
        {
            "bufferView" : 4,
            "componentType" : 5123,
            "count" : 2346,
            "type" : "SCALAR"
        }
    ],
    "bufferViews" : [
        {
            "buffer" : 0,
            "byteLength" : 27360,
            "byteOffset" : 0
        },
        {
            "buffer" : 0,
            "byteLength" : 27360,
            "byteOffset" : 27360
        },
        {
            "buffer" : 0,
            "byteLength" : 18240,
            "byteOffset" : 54720
        },
        {
            "buffer" : 0,
            "byteLength" : 36480,
            "byteOffset" : 72960
        },
        {
            "buffer" : 0,
            "byteLength" : 4692,
            "byteOffset" : 109440
        }
    ],
    "buffers" : [
        {
            "byteLength" : 114132,
            "uri" : "data:application/octet-stream;base64,"
        }
    ]
}
