{
    "asset" : {
        "generator" : "Khronos glTF Blender I/O v1.1.46",
        "version" : "2.0"
    },
    "scene" : 0,
    "scenes" : [
        {
            "name" : "Scene",
            "nodes" : [
                0
            ]
        }
    ],
    "nodes" : [
        {
            "mesh" : 0,
            "name" : "Salvage Machinegun_lowpoly"
        }
    ],
    "meshes" : [
        {
            "name" : "Cube.001",
            "primitives" : [
                {
                    "attributes" : {
                        "POSITION" : 0,
                        "NORMAL" : 1,
                        "TEXCOORD_0" : 2,
                        "COLOR_0" : 3
                    },
                    "indices" : 4
                }
            ]
        }
    ],
    "accessors" : [
        {
            "bufferView" : 0,
            "componentType" : 5126,
            "count" : 2572,
            "max" : [
                0.14609189331531525,
                0.01238226518034935,
                0.044793449342250824
            ],
            "min" : [
                -0.16637052595615387,
                -0.02045508101582527,
                -0.1062205359339714
            ],
            "type" : "VEC3"
        },
        {
            "bufferView" : 1,
            "componentType" : 5126,
            "count" : 2572,
            "type" : "VEC3"
        },
        {
            "bufferView" : 2,
            "componentType" : 5126,
            "count" : 2572,
            "type" : "VEC2"
        },
        {
            "bufferView" : 3,
            "componentType" : 5126,
            "count" : 2572,
            "type" : "VEC4"
        },
        {
            "bufferView" : 4,
            "componentType" : 5123,
            "count" : 2622,
            "type" : "SCALAR"
        }
    ],
    "bufferViews" : [
        {
            "buffer" : 0,
            "byteLength" : 30864,
            "byteOffset" : 0
        },
        {
            "buffer" : 0,
            "byteLength" : 30864,
            "byteOffset" : 30864
        },
        {
            "buffer" : 0,
            "byteLength" : 20576,
            "byteOffset" : 61728
        },
        {
            "buffer" : 0,
            "byteLength" : 41152,
            "byteOffset" : 82304
        },
        {
            "buffer" : 0,
            "byteLength" : 5244,
            "byteOffset" : 123456
        }
    ],
    "buffers" : [
        {
            "byteLength" : 128700,
            "uri" : "data:application/octet-stream;base64,"
        }
    ]
}
