{
    "asset" : {
        "generator" : "Khronos glTF Blender I/O v1.1.46",
        "version" : "2.0"
    },
    "scene" : 0,
    "scenes" : [
        {
            "name" : "Scene",
            "nodes" : [
                0
            ]
        }
    ],
    "nodes" : [
        {
            "mesh" : 0,
            "name" : "StoneWall3"
        }
    ],
    "meshes" : [
        {
            "name" : "Cube.002",
            "primitives" : [
                {
                    "attributes" : {
                        "POSITION" : 0,
                        "NORMAL" : 1,
                        "TEXCOORD_0" : 2
                    },
                    "indices" : 3
                }
            ]
        }
    ],
    "accessors" : [
        {
            "bufferView" : 0,
            "componentType" : 5126,
            "count" : 154,
            "max" : [
                0.506352424621582,
                0.10840369760990143,
                1.9938247203826904
            ],
            "min" : [
                -0.4936475455760956,
                -0.11217667162418365,
                -5.127523763803765e-05
            ],
            "type" : "VEC3"
        },
        {
            "bufferView" : 1,
            "componentType" : 5126,
            "count" : 154,
            "type" : "VEC3"
        },
        {
            "bufferView" : 2,
            "componentType" : 5126,
            "count" : 154,
            "type" : "VEC2"
        },
        {
            "bufferView" : 3,
            "componentType" : 5123,
            "count" : 342,
            "type" : "SCALAR"
        }
    ],
    "bufferViews" : [
        {
            "buffer" : 0,
            "byteLength" : 1848,
            "byteOffset" : 0
        },
        {
            "buffer" : 0,
            "byteLength" : 1848,
            "byteOffset" : 1848
        },
        {
            "buffer" : 0,
            "byteLength" : 1232,
            "byteOffset" : 3696
        },
        {
            "buffer" : 0,
            "byteLength" : 684,
            "byteOffset" : 4928
        }
    ],
    "buffers" : [
        {
            "byteLength" : 5612,
            "uri" : "data:application/octet-stream;base64,"
        }
    ]
}
