{
    "asset" : {
        "generator" : "Khronos glTF Blender I/O v1.1.46",
        "version" : "2.0"
    },
    "scene" : 0,
    "scenes" : [
        {
            "name" : "Scene",
            "nodes" : [
                0
            ]
        }
    ],
    "nodes" : [
        {
            "mesh" : 0,
            "name" : "Lowpoly Salvage Shotgun"
        }
    ],
    "meshes" : [
        {
            "name" : "Cube.017",
            "primitives" : [
                {
                    "attributes" : {
                        "POSITION" : 0,
                        "NORMAL" : 1,
                        "TEXCOORD_0" : 2,
                        "COLOR_0" : 3
                    },
                    "indices" : 4
                }
            ]
        }
    ],
    "accessors" : [
        {
            "bufferView" : 0,
            "componentType" : 5126,
            "count" : 2788,
            "max" : [
                0.28680017590522766,
                0.027185413986444473,
                0.0674385353922844
            ],
            "min" : [
                -0.16317486763000488,
                -0.02718537114560604,
                -0.02835707552731037
            ],
            "type" : "VEC3"
        },
        {
            "bufferView" : 1,
            "componentType" : 5126,
            "count" : 2788,
            "type" : "VEC3"
        },
        {
            "bufferView" : 2,
            "componentType" : 5126,
            "count" : 2788,
            "type" : "VEC2"
        },
        {
            "bufferView" : 3,
            "componentType" : 5126,
            "count" : 2788,
            "type" : "VEC4"
        },
        {
            "bufferView" : 4,
            "componentType" : 5123,
            "count" : 2970,
            "type" : "SCALAR"
        }
    ],
    "bufferViews" : [
        {
            "buffer" : 0,
            "byteLength" : 33456,
            "byteOffset" : 0
        },
        {
            "buffer" : 0,
            "byteLength" : 33456,
            "byteOffset" : 33456
        },
        {
            "buffer" : 0,
            "byteLength" : 22304,
            "byteOffset" : 66912
        },
        {
            "buffer" : 0,
            "byteLength" : 44608,
            "byteOffset" : 89216
        },
        {
            "buffer" : 0,
            "byteLength" : 5940,
            "byteOffset" : 133824
        }
    ],
    "buffers" : [
        {
            "byteLength" : 139764,
            "uri" : "data:application/octet-stream;base64,"
        }
    ]
}
