{
    "asset" : {
        "generator" : "Khronos glTF Blender I/O v1.1.46",
        "version" : "2.0"
    },
    "scene" : 0,
    "scenes" : [
        {
            "name" : "Scene",
            "nodes" : [
                6
            ]
        }
    ],
    "nodes" : [
        {
            "name" : "hinge_end",
            "rotation" : [
                -3.4579647945065517e-07,
                8.470330482284962e-22,
                8.00108703626529e-21,
                1
            ],
            "translation" : [
                -3.0517621780745685e-05,
                176.50601196289062,
                3.634375025285408e-05
            ]
        },
        {
            "children" : [
                0
            ],
            "name" : "hinge",
            "rotation" : [
                0.983294665813446,
                2.1058251273113875e-15,
                -1.137580494755576e-14,
                0.18202126026153564
            ],
            "scale" : [
                1,
                0.9999999403953552,
                0.9999999403953552
            ],
            "translation" : [
                275.2721862792969,
                467.5401916503906,
                868.7911376953125
            ]
        },
        {
            "name" : "root_end",
            "rotation" : [
                5.531083502319234e-07,
                -3.178649876645068e-08,
                1.9780695365099327e-13,
                1
            ],
            "translation" : [
                -2.076447572108009e-06,
                689.6835327148438,
                -8.695643373357598e-06
            ]
        },
        {
            "children" : [
                2
            ],
            "name" : "root",
            "rotation" : [
                1.0676996708980369e-07,
                0.7071071863174438,
                -0.707106351852417,
                -1.6858753326687292e-07
            ],
            "translation" : [
                275.2721862792969,
                467.5401916503906,
                868.7911376953125
            ]
        },
        {
            "mesh" : 0,
            "name" : "storage chest_T1",
            "skin" : 0
        },
        {
            "children" : [
                4,
                1,
                3
            ],
            "name" : "Armature.001"
        },
        {
            "children" : [
                5
            ],
            "name" : "Armature"
        }
    ],
    "animations" : [
        {
            "channels" : [
                {
                    "sampler" : 0,
                    "target" : {
                        "node" : 0,
                        "path" : "translation"
                    }
                },
                {
                    "sampler" : 1,
                    "target" : {
                        "node" : 0,
                        "path" : "rotation"
                    }
                },
                {
                    "sampler" : 2,
                    "target" : {
                        "node" : 0,
                        "path" : "scale"
                    }
                },
                {
                    "sampler" : 3,
                    "target" : {
                        "node" : 2,
                        "path" : "translation"
                    }
                },
                {
                    "sampler" : 4,
                    "target" : {
                        "node" : 2,
                        "path" : "rotation"
                    }
                },
                {
                    "sampler" : 5,
                    "target" : {
                        "node" : 2,
                        "path" : "scale"
                    }
                },
                {
                    "sampler" : 6,
                    "target" : {
                        "node" : 1,
                        "path" : "translation"
                    }
                },
                {
                    "sampler" : 7,
                    "target" : {
                        "node" : 1,
                        "path" : "rotation"
                    }
                },
                {
                    "sampler" : 8,
                    "target" : {
                        "node" : 1,
                        "path" : "scale"
                    }
                },
                {
                    "sampler" : 9,
                    "target" : {
                        "node" : 3,
                        "path" : "translation"
                    }
                },
                {
                    "sampler" : 10,
                    "target" : {
                        "node" : 3,
                        "path" : "rotation"
                    }
                },
                {
                    "sampler" : 11,
                    "target" : {
                        "node" : 3,
                        "path" : "scale"
                    }
                }
            ],
            "name" : "Armature|Armature|Close|Armature|Close_Armature.001",
            "samplers" : [
                {
                    "input" : 8,
                    "interpolation" : "LINEAR",
                    "output" : 9
                },
                {
                    "input" : 8,
                    "interpolation" : "LINEAR",
                    "output" : 10
                },
                {
                    "input" : 8,
                    "interpolation" : "LINEAR",
                    "output" : 11
                },
                {
                    "input" : 8,
                    "interpolation" : "LINEAR",
                    "output" : 12
                },
                {
                    "input" : 8,
                    "interpolation" : "LINEAR",
                    "output" : 13
                },
                {
                    "input" : 8,
                    "interpolation" : "LINEAR",
                    "output" : 14
                },
                {
                    "input" : 8,
                    "interpolation" : "LINEAR",
                    "output" : 15
                },
                {
                    "input" : 8,
                    "interpolation" : "LINEAR",
                    "output" : 16
                },
                {
                    "input" : 8,
                    "interpolation" : "LINEAR",
                    "output" : 17
                },
                {
                    "input" : 8,
                    "interpolation" : "LINEAR",
                    "output" : 18
                },
                {
                    "input" : 8,
                    "interpolation" : "LINEAR",
                    "output" : 19
                },
                {
                    "input" : 8,
                    "interpolation" : "LINEAR",
                    "output" : 20
                }
            ]
        }
    ],
    "meshes" : [
        {
            "name" : "Cube.013",
            "primitives" : [
                {
                    "attributes" : {
                        "POSITION" : 0,
                        "NORMAL" : 1,
                        "TEXCOORD_0" : 2,
                        "COLOR_0" : 3,
                        "JOINTS_0" : 4,
                        "WEIGHTS_0" : 5
                    },
                    "indices" : 6
                }
            ]
        }
    ],
    "skins" : [
        {
            "inverseBindMatrices" : 7,
            "joints" : [
                1,
                0,
                3,
                2
            ],
            "name" : "Armature.001"
        }
    ],
    "accessors" : [
        {
            "bufferView" : 0,
            "componentType" : 5126,
            "count" : 3542,
            "max" : [
                416.7758483886719,
                487.84527587890625,
                921.1228637695312
            ],
            "min" : [
                -452.7615966796875,
                -484.2397155761719,
                15.464497566223145
            ],
            "type" : "VEC3"
        },
        {
            "bufferView" : 1,
            "componentType" : 5126,
            "count" : 3542,
            "type" : "VEC3"
        },
        {
            "bufferView" : 2,
            "componentType" : 5126,
            "count" : 3542,
            "type" : "VEC2"
        },
        {
            "bufferView" : 3,
            "componentType" : 5126,
            "count" : 3542,
            "type" : "VEC4"
        },
        {
            "bufferView" : 4,
            "componentType" : 5123,
            "count" : 3542,
            "type" : "VEC4"
        },
        {
            "bufferView" : 5,
            "componentType" : 5126,
            "count" : 3542,
            "type" : "VEC4"
        },
        {
            "bufferView" : 6,
            "componentType" : 5123,
            "count" : 3648,
            "type" : "SCALAR"
        },
        {
            "bufferView" : 7,
            "componentType" : 5126,
            "count" : 4,
            "type" : "MAT4"
        },
        {
            "bufferView" : 8,
            "componentType" : 5126,
            "count" : 25,
            "max" : [
                1.0416666666666667
            ],
            "min" : [
                0.041666666666666664
            ],
            "type" : "SCALAR"
        },
        {
            "bufferView" : 9,
            "componentType" : 5126,
            "count" : 25,
            "type" : "VEC3"
        },
        {
            "bufferView" : 10,
            "componentType" : 5126,
            "count" : 25,
            "type" : "VEC4"
        },
        {
            "bufferView" : 11,
            "componentType" : 5126,
            "count" : 25,
            "type" : "VEC3"
        },
        {
            "bufferView" : 12,
            "componentType" : 5126,
            "count" : 25,
            "type" : "VEC3"
        },
        {
            "bufferView" : 13,
            "componentType" : 5126,
            "count" : 25,
            "type" : "VEC4"
        },
        {
            "bufferView" : 14,
            "componentType" : 5126,
            "count" : 25,
            "type" : "VEC3"
        },
        {
            "bufferView" : 15,
            "componentType" : 5126,
            "count" : 25,
            "type" : "VEC3"
        },
        {
            "bufferView" : 16,
            "componentType" : 5126,
            "count" : 25,
            "type" : "VEC4"
        },
        {
            "bufferView" : 17,
            "componentType" : 5126,
            "count" : 25,
            "type" : "VEC3"
        },
        {
            "bufferView" : 18,
            "componentType" : 5126,
            "count" : 25,
            "type" : "VEC3"
        },
        {
            "bufferView" : 19,
            "componentType" : 5126,
            "count" : 25,
            "type" : "VEC4"
        },
        {
            "bufferView" : 20,
            "componentType" : 5126,
            "count" : 25,
            "type" : "VEC3"
        }
    ],
    "bufferViews" : [
        {
            "buffer" : 0,
            "byteLength" : 42504,
            "byteOffset" : 0
        },
        {
            "buffer" : 0,
            "byteLength" : 42504,
            "byteOffset" : 42504
        },
        {
            "buffer" : 0,
            "byteLength" : 28336,
            "byteOffset" : 85008
        },
        {
            "buffer" : 0,
            "byteLength" : 56672,
            "byteOffset" : 113344
        },
        {
            "buffer" : 0,
            "byteLength" : 28336,
            "byteOffset" : 170016
        },
        {
            "buffer" : 0,
            "byteLength" : 56672,
            "byteOffset" : 198352
        },
        {
            "buffer" : 0,
            "byteLength" : 7296,
            "byteOffset" : 255024
        },
        {
            "buffer" : 0,
            "byteLength" : 256,
            "byteOffset" : 262320
        },
        {
            "buffer" : 0,
            "byteLength" : 100,
            "byteOffset" : 262576
        },
        {
            "buffer" : 0,
            "byteLength" : 300,
            "byteOffset" : 262676
        },
        {
            "buffer" : 0,
            "byteLength" : 400,
            "byteOffset" : 262976
        },
        {
            "buffer" : 0,
            "byteLength" : 300,
            "byteOffset" : 263376
        },
        {
            "buffer" : 0,
            "byteLength" : 300,
            "byteOffset" : 263676
        },
        {
            "buffer" : 0,
            "byteLength" : 400,
            "byteOffset" : 263976
        },
        {
            "buffer" : 0,
            "byteLength" : 300,
            "byteOffset" : 264376
        },
        {
            "buffer" : 0,
            "byteLength" : 300,
            "byteOffset" : 264676
        },
        {
            "buffer" : 0,
            "byteLength" : 400,
            "byteOffset" : 264976
        },
        {
            "buffer" : 0,
            "byteLength" : 300,
            "byteOffset" : 265376
        },
        {
            "buffer" : 0,
            "byteLength" : 300,
            "byteOffset" : 265676
        },
        {
            "buffer" : 0,
            "byteLength" : 400,
            "byteOffset" : 265976
        },
        {
            "buffer" : 0,
            "byteLength" : 300,
            "byteOffset" : 266376
        }
    ],
    "buffers" : [
        {
            "byteLength" : 266676,
            "uri" : "data:application/octet-stream;base64,"
        }
    ]
}
