{
    "asset" : {
        "generator" : "Khronos glTF Blender I/O v1.1.46",
        "version" : "2.0"
    },
    "scene" : 0,
    "scenes" : [
        {
            "name" : "Scene",
            "nodes" : [
                0
            ]
        }
    ],
    "nodes" : [
        {
            "mesh" : 0,
            "name" : "storage chest_T1"
        }
    ],
    "meshes" : [
        {
            "name" : "Cube.031",
            "primitives" : [
                {
                    "attributes" : {
                        "POSITION" : 0,
                        "NORMAL" : 1,
                        "TEXCOORD_0" : 2,
                        "COLOR_0" : 3
                    },
                    "indices" : 4
                }
            ]
        }
    ],
    "accessors" : [
        {
            "bufferView" : 0,
            "componentType" : 5126,
            "count" : 3518,
            "max" : [
                416.77587890625,
                487.8454895019531,
                921.123046875
            ],
            "min" : [
                -452.76165771484375,
                -484.23968505859375,
                15.464618682861328
            ],
            "type" : "VEC3"
        },
        {
            "bufferView" : 1,
            "componentType" : 5126,
            "count" : 3518,
            "type" : "VEC3"
        },
        {
            "bufferView" : 2,
            "componentType" : 5126,
            "count" : 3518,
            "type" : "VEC2"
        },
        {
            "bufferView" : 3,
            "componentType" : 5126,
            "count" : 3518,
            "type" : "VEC4"
        },
        {
            "bufferView" : 4,
            "componentType" : 5123,
            "count" : 3624,
            "type" : "SCALAR"
        }
    ],
    "bufferViews" : [
        {
            "buffer" : 0,
            "byteLength" : 42216,
            "byteOffset" : 0
        },
        {
            "buffer" : 0,
            "byteLength" : 42216,
            "byteOffset" : 42216
        },
        {
            "buffer" : 0,
            "byteLength" : 28144,
            "byteOffset" : 84432
        },
        {
            "buffer" : 0,
            "byteLength" : 56288,
            "byteOffset" : 112576
        },
        {
            "buffer" : 0,
            "byteLength" : 7248,
            "byteOffset" : 168864
        }
    ],
    "buffers" : [
        {
            "byteLength" : 176112,
            "uri" : "data:application/octet-stream;base64,"
        }
    ]
}
