{
    "asset" : {
        "generator" : "Khronos glTF Blender I/O v1.3.48",
        "version" : "2.0"
    },
    "scene" : 0,
    "scenes" : [
        {
            "name" : "Scene",
            "nodes" : [
                0
            ]
        }
    ],
    "nodes" : [
        {
            "mesh" : 0,
            "name" : "Rock2"
        }
    ],
    "meshes" : [
        {
            "name" : "Cube.007",
            "primitives" : [
                {
                    "attributes" : {
                        "POSITION" : 0,
                        "NORMAL" : 1,
                        "TEXCOORD_0" : 2
                    },
                    "indices" : 3
                }
            ]
        }
    ],
    "accessors" : [
        {
            "bufferView" : 0,
            "componentType" : 5126,
            "count" : 500,
            "max" : [
                45.30640411376953,
                84.02040100097656,
                48.791812896728516
            ],
            "min" : [
                -46.722652435302734,
                -8.179313659667969,
                -50.87407684326172
            ],
            "type" : "VEC3"
        },
        {
            "bufferView" : 1,
            "componentType" : 5126,
            "count" : 500,
            "type" : "VEC3"
        },
        {
            "bufferView" : 2,
            "componentType" : 5126,
            "count" : 500,
            "type" : "VEC2"
        },
        {
            "bufferView" : 3,
            "componentType" : 5123,
            "count" : 2754,
            "type" : "SCALAR"
        }
    ],
    "bufferViews" : [
        {
            "buffer" : 0,
            "byteLength" : 6000,
            "byteOffset" : 0
        },
        {
            "buffer" : 0,
            "byteLength" : 6000,
            "byteOffset" : 6000
        },
        {
            "buffer" : 0,
            "byteLength" : 4000,
            "byteOffset" : 12000
        },
        {
            "buffer" : 0,
            "byteLength" : 5508,
            "byteOffset" : 16000
        }
    ],
    "buffers" : [
        {
            "byteLength" : 21508,
            "uri" : "data:application/octet-stream;base64,"
        }
    ]
}
