{
    "asset" : {
        "generator" : "Khronos glTF Blender I/O v1.3.48",
        "version" : "2.0"
    },
    "scene" : 0,
    "scenes" : [
        {
            "name" : "Scene",
            "nodes" : [
                0
            ]
        }
    ],
    "nodes" : [
        {
            "mesh" : 0,
            "name" : "furnace"
        }
    ],
    "meshes" : [
        {
            "name" : "Plane.002",
            "primitives" : [
                {
                    "attributes" : {
                        "POSITION" : 0,
                        "NORMAL" : 1,
                        "TEXCOORD_0" : 2,
                        "COLOR_0" : 3
                    },
                    "indices" : 4
                }
            ]
        }
    ],
    "accessors" : [
        {
            "bufferView" : 0,
            "componentType" : 5126,
            "count" : 7518,
            "max" : [
                41.37242126464844,
                247.04730224609375,
                40.98136520385742
            ],
            "min" : [
                -42.44862365722656,
                -0.07798345386981964,
                -41.0433464050293
            ],
            "type" : "VEC3"
        },
        {
            "bufferView" : 1,
            "componentType" : 5126,
            "count" : 7518,
            "type" : "VEC3"
        },
        {
            "bufferView" : 2,
            "componentType" : 5126,
            "count" : 7518,
            "type" : "VEC2"
        },
        {
            "bufferView" : 3,
            "componentType" : 5126,
            "count" : 7518,
            "type" : "VEC4"
        },
        {
            "bufferView" : 4,
            "componentType" : 5123,
            "count" : 8415,
            "type" : "SCALAR"
        }
    ],
    "bufferViews" : [
        {
            "buffer" : 0,
            "byteLength" : 90216,
            "byteOffset" : 0
        },
        {
            "buffer" : 0,
            "byteLength" : 90216,
            "byteOffset" : 90216
        },
        {
            "buffer" : 0,
            "byteLength" : 60144,
            "byteOffset" : 180432
        },
        {
            "buffer" : 0,
            "byteLength" : 120288,
            "byteOffset" : 240576
        },
        {
            "buffer" : 0,
            "byteLength" : 16830,
            "byteOffset" : 360864
        }
    ],
    "buffers" : [
        {
            "byteLength" : 377696,
            "uri" : "data:application/octet-stream;base64,"
        }
    ]
}
