{
    "asset" : {
        "generator" : "Khronos glTF Blender I/O v1.1.46",
        "version" : "2.0"
    },
    "scene" : 0,
    "scenes" : [
        {
            "name" : "Scene",
            "nodes" : [
                0
            ]
        }
    ],
    "nodes" : [
        {
            "mesh" : 0,
            "name" : "Torch_Wallmounted"
        }
    ],
    "meshes" : [
        {
            "name" : "Cube.021",
            "primitives" : [
                {
                    "attributes" : {
                        "POSITION" : 0,
                        "NORMAL" : 1,
                        "TEXCOORD_0" : 2,
                        "COLOR_0" : 3
                    },
                    "indices" : 4
                }
            ]
        }
    ],
    "accessors" : [
        {
            "bufferView" : 0,
            "componentType" : 5126,
            "count" : 2130,
            "max" : [
                5.2435808181762695,
                25.629501342773438,
                138.33946228027344
            ],
            "min" : [
                -5.7658891677856445,
                -4.168437957763672,
                84.4170913696289
            ],
            "type" : "VEC3"
        },
        {
            "bufferView" : 1,
            "componentType" : 5126,
            "count" : 2130,
            "type" : "VEC3"
        },
        {
            "bufferView" : 2,
            "componentType" : 5126,
            "count" : 2130,
            "type" : "VEC2"
        },
        {
            "bufferView" : 3,
            "componentType" : 5126,
            "count" : 2130,
            "type" : "VEC4"
        },
        {
            "bufferView" : 4,
            "componentType" : 5123,
            "count" : 2232,
            "type" : "SCALAR"
        }
    ],
    "bufferViews" : [
        {
            "buffer" : 0,
            "byteLength" : 25560,
            "byteOffset" : 0
        },
        {
            "buffer" : 0,
            "byteLength" : 25560,
            "byteOffset" : 25560
        },
        {
            "buffer" : 0,
            "byteLength" : 17040,
            "byteOffset" : 51120
        },
        {
            "buffer" : 0,
            "byteLength" : 34080,
            "byteOffset" : 68160
        },
        {
            "buffer" : 0,
            "byteLength" : 4464,
            "byteOffset" : 102240
        }
    ],
    "buffers" : [
        {
            "byteLength" : 106704,
            "uri" : "data:application/octet-stream;base64,"
        }
    ]
}
