{
    "asset" : {
        "generator" : "Khronos glTF Blender I/O v1.1.46",
        "version" : "2.0"
    },
    "scene" : 0,
    "scenes" : [
        {
            "name" : "Scene",
            "nodes" : [
                0
            ]
        }
    ],
    "nodes" : [
        {
            "mesh" : 0,
            "name" : "Wall_1"
        }
    ],
    "meshes" : [
        {
            "name" : "Cube.006",
            "primitives" : [
                {
                    "attributes" : {
                        "POSITION" : 0,
                        "NORMAL" : 1,
                        "TEXCOORD_0" : 2,
                        "COLOR_0" : 3
                    },
                    "indices" : 4
                }
            ]
        }
    ],
    "accessors" : [
        {
            "bufferView" : 0,
            "componentType" : 5126,
            "count" : 1146,
            "max" : [
                550.0426635742188,
                160.7160186767578,
                2004.08544921875
            ],
            "min" : [
                -550.0426635742188,
                -160.71719360351562,
                -0.26389697194099426
            ],
            "type" : "VEC3"
        },
        {
            "bufferView" : 1,
            "componentType" : 5126,
            "count" : 1146,
            "type" : "VEC3"
        },
        {
            "bufferView" : 2,
            "componentType" : 5126,
            "count" : 1146,
            "type" : "VEC2"
        },
        {
            "bufferView" : 3,
            "componentType" : 5126,
            "count" : 1146,
            "type" : "VEC4"
        },
        {
            "bufferView" : 4,
            "componentType" : 5123,
            "count" : 1146,
            "type" : "SCALAR"
        }
    ],
    "bufferViews" : [
        {
            "buffer" : 0,
            "byteLength" : 13752,
            "byteOffset" : 0
        },
        {
            "buffer" : 0,
            "byteLength" : 13752,
            "byteOffset" : 13752
        },
        {
            "buffer" : 0,
            "byteLength" : 9168,
            "byteOffset" : 27504
        },
        {
            "buffer" : 0,
            "byteLength" : 18336,
            "byteOffset" : 36672
        },
        {
            "buffer" : 0,
            "byteLength" : 2292,
            "byteOffset" : 55008
        }
    ],
    "buffers" : [
        {
            "byteLength" : 57300,
            "uri" : "data:application/octet-stream;base64,"
        }
    ]
}
