{
    "asset" : {
        "generator" : "Khronos glTF Blender I/O v1.1.46",
        "version" : "2.0"
    },
    "scene" : 0,
    "scenes" : [
        {
            "name" : "Scene",
            "nodes" : [
                0
            ]
        }
    ],
    "nodes" : [
        {
            "mesh" : 0,
            "name" : "Blunderbuss"
        }
    ],
    "meshes" : [
        {
            "name" : "Cube.005",
            "primitives" : [
                {
                    "attributes" : {
                        "POSITION" : 0,
                        "NORMAL" : 1,
                        "TEXCOORD_0" : 2,
                        "COLOR_0" : 3
                    },
                    "indices" : 4
                }
            ]
        }
    ],
    "accessors" : [
        {
            "bufferView" : 0,
            "componentType" : 5126,
            "count" : 6480,
            "max" : [
                82.33358764648438,
                11.967935562133789,
                6.072676658630371
            ],
            "min" : [
                -0.813338041305542,
                -6.463515281677246,
                -5.990048408508301
            ],
            "type" : "VEC3"
        },
        {
            "bufferView" : 1,
            "componentType" : 5126,
            "count" : 6480,
            "type" : "VEC3"
        },
        {
            "bufferView" : 2,
            "componentType" : 5126,
            "count" : 6480,
            "type" : "VEC2"
        },
        {
            "bufferView" : 3,
            "componentType" : 5126,
            "count" : 6480,
            "type" : "VEC4"
        },
        {
            "bufferView" : 4,
            "componentType" : 5123,
            "count" : 6480,
            "type" : "SCALAR"
        }
    ],
    "bufferViews" : [
        {
            "buffer" : 0,
            "byteLength" : 77760,
            "byteOffset" : 0
        },
        {
            "buffer" : 0,
            "byteLength" : 77760,
            "byteOffset" : 77760
        },
        {
            "buffer" : 0,
            "byteLength" : 51840,
            "byteOffset" : 155520
        },
        {
            "buffer" : 0,
            "byteLength" : 103680,
            "byteOffset" : 207360
        },
        {
            "buffer" : 0,
            "byteLength" : 12960,
            "byteOffset" : 311040
        }
    ],
    "buffers" : [
        {
            "byteLength" : 324000,
            "uri" : "data:application/octet-stream;base64,"
        }
    ]
}
