{
    "asset" : {
        "generator" : "Khronos glTF Blender I/O v1.1.46",
        "version" : "2.0"
    },
    "scene" : 0,
    "scenes" : [
        {
            "name" : "Scene",
            "nodes" : [
                0
            ]
        }
    ],
    "nodes" : [
        {
            "mesh" : 0,
            "name" : "Campfire"
        }
    ],
    "meshes" : [
        {
            "name" : "Cylinder.002",
            "primitives" : [
                {
                    "attributes" : {
                        "POSITION" : 0,
                        "NORMAL" : 1,
                        "TEXCOORD_0" : 2,
                        "COLOR_0" : 3
                    },
                    "indices" : 4
                }
            ]
        }
    ],
    "accessors" : [
        {
            "bufferView" : 0,
            "componentType" : 5126,
            "count" : 2232,
            "max" : [
                429.17730712890625,
                469.5172424316406,
                93.35585021972656
            ],
            "min" : [
                -388.96380615234375,
                -377.5276184082031,
                -290.4365539550781
            ],
            "type" : "VEC3"
        },
        {
            "bufferView" : 1,
            "componentType" : 5126,
            "count" : 2232,
            "type" : "VEC3"
        },
        {
            "bufferView" : 2,
            "componentType" : 5126,
            "count" : 2232,
            "type" : "VEC2"
        },
        {
            "bufferView" : 3,
            "componentType" : 5126,
            "count" : 2232,
            "type" : "VEC4"
        },
        {
            "bufferView" : 4,
            "componentType" : 5123,
            "count" : 2232,
            "type" : "SCALAR"
        }
    ],
    "bufferViews" : [
        {
            "buffer" : 0,
            "byteLength" : 26784,
            "byteOffset" : 0
        },
        {
            "buffer" : 0,
            "byteLength" : 26784,
            "byteOffset" : 26784
        },
        {
            "buffer" : 0,
            "byteLength" : 17856,
            "byteOffset" : 53568
        },
        {
            "buffer" : 0,
            "byteLength" : 35712,
            "byteOffset" : 71424
        },
        {
            "buffer" : 0,
            "byteLength" : 4464,
            "byteOffset" : 107136
        }
    ],
    "buffers" : [
        {
            "byteLength" : 111600,
            "uri" : "data:application/octet-stream;base64,"
        }
    ]
}
