{
    "asset" : {
        "generator" : "Khronos glTF Blender I/O v1.3.48",
        "version" : "2.0"
    },
    "scene" : 0,
    "scenes" : [
        {
            "name" : "Scene",
            "nodes" : [
                0
            ]
        }
    ],
    "nodes" : [
        {
            "mesh" : 0,
            "name" : "Cube"
        }
    ],
    "materials" : [
        {
            "doubleSided" : true,
            "emissiveFactor" : [
                0,
                0,
                0
            ],
            "name" : "Material.006",
            "pbrMetallicRoughness" : {
                "metallicFactor" : 0,
                "roughnessFactor" : 0.4000000059604645
            }
        }
    ],
    "meshes" : [
        {
            "name" : "Cube.006",
            "primitives" : [
                {
                    "attributes" : {
                        "POSITION" : 0,
                        "NORMAL" : 1,
                        "TEXCOORD_0" : 2,
                        "COLOR_0" : 3
                    },
                    "indices" : 4,
                    "material" : 0
                }
            ]
        }
    ],
    "accessors" : [
        {
            "bufferView" : 0,
            "componentType" : 5126,
            "count" : 2784,
            "max" : [
                52.22511291503906,
                66.51016235351562,
                49.99723815917969
            ],
            "min" : [
                -43.61678695678711,
                -15.310161590576172,
                -47.11264419555664
            ],
            "type" : "VEC3"
        },
        {
            "bufferView" : 1,
            "componentType" : 5126,
            "count" : 2784,
            "type" : "VEC3"
        },
        {
            "bufferView" : 2,
            "componentType" : 5126,
            "count" : 2784,
            "type" : "VEC2"
        },
        {
            "bufferView" : 3,
            "componentType" : 5126,
            "count" : 2784,
            "type" : "VEC4"
        },
        {
            "bufferView" : 4,
            "componentType" : 5123,
            "count" : 2784,
            "type" : "SCALAR"
        }
    ],
    "bufferViews" : [
        {
            "buffer" : 0,
            "byteLength" : 33408,
            "byteOffset" : 0
        },
        {
            "buffer" : 0,
            "byteLength" : 33408,
            "byteOffset" : 33408
        },
        {
            "buffer" : 0,
            "byteLength" : 22272,
            "byteOffset" : 66816
        },
        {
            "buffer" : 0,
            "byteLength" : 44544,
            "byteOffset" : 89088
        },
        {
            "buffer" : 0,
            "byteLength" : 5568,
            "byteOffset" : 133632
        }
    ],
    "buffers" : [
        {
            "byteLength" : 139200,
            "uri" : "data:application/octet-stream;base64,"
        }
    ]
}
