{
    "asset" : {
        "generator" : "Khronos glTF Blender I/O v1.1.45",
        "version" : "2.0"
    },
    "scene" : 0,
    "scenes" : [
        {
            "name" : "Scene",
            "nodes" : [
                0
            ]
        }
    ],
    "nodes" : [
        {
            "mesh" : 0,
            "name" : "IronRichRocks.001"
        }
    ],
    "meshes" : [
        {
            "name" : "Cube.003",
            "primitives" : [
                {
                    "attributes" : {
                        "POSITION" : 0,
                        "NORMAL" : 1,
                        "TEXCOORD_0" : 2,
                        "COLOR_0" : 3
                    },
                    "indices" : 4
                }
            ]
        }
    ],
    "accessors" : [
        {
            "bufferView" : 0,
            "componentType" : 5126,
            "count" : 674,
            "max" : [
                0.21203666925430298,
                0.22786720097064972,
                0.061221688985824585
            ],
            "min" : [
                -0.19652192294597626,
                -0.2142532467842102,
                -0.006340793799608946
            ],
            "type" : "VEC3"
        },
        {
            "bufferView" : 1,
            "componentType" : 5126,
            "count" : 674,
            "type" : "VEC3"
        },
        {
            "bufferView" : 2,
            "componentType" : 5126,
            "count" : 674,
            "type" : "VEC2"
        },
        {
            "bufferView" : 3,
            "componentType" : 5126,
            "count" : 674,
            "type" : "VEC4"
        },
        {
            "bufferView" : 4,
            "componentType" : 5123,
            "count" : 3333,
            "type" : "SCALAR"
        }
    ],
    "bufferViews" : [
        {
            "buffer" : 0,
            "byteLength" : 8088,
            "byteOffset" : 0
        },
        {
            "buffer" : 0,
            "byteLength" : 8088,
            "byteOffset" : 8088
        },
        {
            "buffer" : 0,
            "byteLength" : 5392,
            "byteOffset" : 16176
        },
        {
            "buffer" : 0,
            "byteLength" : 10784,
            "byteOffset" : 21568
        },
        {
            "buffer" : 0,
            "byteLength" : 6666,
            "byteOffset" : 32352
        }
    ],
    "buffers" : [
        {
            "byteLength" : 39020,
            "uri" : "data:application/octet-stream;base64,"
        }
    ]
}
