{
    "asset" : {
        "generator" : "Khronos glTF Blender I/O v1.1.45",
        "version" : "2.0"
    },
    "scene" : 0,
    "scenes" : [
        {
            "name" : "Scene",
            "nodes" : [
                0
            ]
        }
    ],
    "nodes" : [
        {
            "mesh" : 0,
            "name" : "IronRichRocks.003"
        }
    ],
    "meshes" : [
        {
            "name" : "Cube.004",
            "primitives" : [
                {
                    "attributes" : {
                        "POSITION" : 0,
                        "NORMAL" : 1,
                        "TEXCOORD_0" : 2,
                        "COLOR_0" : 3
                    },
                    "indices" : 4
                }
            ]
        }
    ],
    "accessors" : [
        {
            "bufferView" : 0,
            "componentType" : 5126,
            "count" : 1395,
            "max" : [
                0.3020302653312683,
                0.38194739818573,
                0.04281874746084213
            ],
            "min" : [
                -0.39923712611198425,
                -0.3158615827560425,
                -0.008228322491049767
            ],
            "type" : "VEC3"
        },
        {
            "bufferView" : 1,
            "componentType" : 5126,
            "count" : 1395,
            "type" : "VEC3"
        },
        {
            "bufferView" : 2,
            "componentType" : 5126,
            "count" : 1395,
            "type" : "VEC2"
        },
        {
            "bufferView" : 3,
            "componentType" : 5126,
            "count" : 1395,
            "type" : "VEC4"
        },
        {
            "bufferView" : 4,
            "componentType" : 5123,
            "count" : 6870,
            "type" : "SCALAR"
        }
    ],
    "bufferViews" : [
        {
            "buffer" : 0,
            "byteLength" : 16740,
            "byteOffset" : 0
        },
        {
            "buffer" : 0,
            "byteLength" : 16740,
            "byteOffset" : 16740
        },
        {
            "buffer" : 0,
            "byteLength" : 11160,
            "byteOffset" : 33480
        },
        {
            "buffer" : 0,
            "byteLength" : 22320,
            "byteOffset" : 44640
        },
        {
            "buffer" : 0,
            "byteLength" : 13740,
            "byteOffset" : 66960
        }
    ],
    "buffers" : [
        {
            "byteLength" : 80700,
            "uri" : "data:application/octet-stream;base64,"
        }
    ]
}
