{
    "asset" : {
        "generator" : "Khronos glTF Blender I/O v1.3.48",
        "version" : "2.0"
    },
    "scene" : 0,
    "scenes" : [
        {
            "name" : "Scene",
            "nodes" : [
                0
            ]
        }
    ],
    "nodes" : [
        {
            "mesh" : 0,
            "name" : "Krystberry_Withberries.006"
        }
    ],
    "meshes" : [
        {
            "name" : "Sphere.022",
            "primitives" : [
                {
                    "attributes" : {
                        "POSITION" : 0,
                        "NORMAL" : 1,
                        "TEXCOORD_0" : 2,
                        "COLOR_0" : 3
                    },
                    "indices" : 4
                }
            ]
        }
    ],
    "accessors" : [
        {
            "bufferView" : 0,
            "componentType" : 5126,
            "count" : 25638,
            "max" : [
                47.31388473510742,
                118.51268768310547,
                45.70234680175781
            ],
            "min" : [
                -62.921409606933594,
                0.19786348938941956,
                -63.719017028808594
            ],
            "type" : "VEC3"
        },
        {
            "bufferView" : 1,
            "componentType" : 5126,
            "count" : 25638,
            "type" : "VEC3"
        },
        {
            "bufferView" : 2,
            "componentType" : 5126,
            "count" : 25638,
            "type" : "VEC2"
        },
        {
            "bufferView" : 3,
            "componentType" : 5126,
            "count" : 25638,
            "type" : "VEC4"
        },
        {
            "bufferView" : 4,
            "componentType" : 5123,
            "count" : 25638,
            "type" : "SCALAR"
        }
    ],
    "bufferViews" : [
        {
            "buffer" : 0,
            "byteLength" : 307656,
            "byteOffset" : 0
        },
        {
            "buffer" : 0,
            "byteLength" : 307656,
            "byteOffset" : 307656
        },
        {
            "buffer" : 0,
            "byteLength" : 205104,
            "byteOffset" : 615312
        },
        {
            "buffer" : 0,
            "byteLength" : 410208,
            "byteOffset" : 820416
        },
        {
            "buffer" : 0,
            "byteLength" : 51276,
            "byteOffset" : 1230624
        }
    ],
    "buffers" : [
        {
            "byteLength" : 1281900,
            "uri" : "data:application/octet-stream;base64,"
        }
    ]
}
