{
    "asset" : {
        "generator" : "Khronos glTF Blender I/O v1.1.46",
        "version" : "2.0"
    },
    "scene" : 0,
    "scenes" : [
        {
            "name" : "Scene",
            "nodes" : [
                0
            ]
        }
    ],
    "nodes" : [
        {
            "mesh" : 0,
            "name" : "Cube.001"
        }
    ],
    "meshes" : [
        {
            "name" : "Cube.001",
            "primitives" : [
                {
                    "attributes" : {
                        "POSITION" : 0,
                        "NORMAL" : 1,
                        "TEXCOORD_0" : 2,
                        "COLOR_0" : 3
                    },
                    "indices" : 4
                }
            ]
        }
    ],
    "accessors" : [
        {
            "bufferView" : 0,
            "componentType" : 5126,
            "count" : 1430,
            "max" : [
                0.1121295839548111,
                0.012429527938365936,
                0.07857221364974976
            ],
            "min" : [
                -0.013342472724616528,
                -0.013765868730843067,
                -0.00016029462858568877
            ],
            "type" : "VEC3"
        },
        {
            "bufferView" : 1,
            "componentType" : 5126,
            "count" : 1430,
            "type" : "VEC3"
        },
        {
            "bufferView" : 2,
            "componentType" : 5126,
            "count" : 1430,
            "type" : "VEC2"
        },
        {
            "bufferView" : 3,
            "componentType" : 5126,
            "count" : 1430,
            "type" : "VEC4"
        },
        {
            "bufferView" : 4,
            "componentType" : 5123,
            "count" : 1530,
            "type" : "SCALAR"
        }
    ],
    "bufferViews" : [
        {
            "buffer" : 0,
            "byteLength" : 17160,
            "byteOffset" : 0
        },
        {
            "buffer" : 0,
            "byteLength" : 17160,
            "byteOffset" : 17160
        },
        {
            "buffer" : 0,
            "byteLength" : 11440,
            "byteOffset" : 34320
        },
        {
            "buffer" : 0,
            "byteLength" : 22880,
            "byteOffset" : 45760
        },
        {
            "buffer" : 0,
            "byteLength" : 3060,
            "byteOffset" : 68640
        }
    ],
    "buffers" : [
        {
            "byteLength" : 71700,
            "uri" : "data:application/octet-stream;base64,"
        }
    ]
}
