{
    "asset" : {
        "generator" : "Khronos glTF Blender I/O v1.1.45",
        "version" : "2.0"
    },
    "scene" : 0,
    "scenes" : [
        {
            "name" : "Scene",
            "nodes" : [
                0
            ]
        }
    ],
    "nodes" : [
        {
            "mesh" : 0,
            "name" : "TallGrass_medium"
        }
    ],
    "meshes" : [
        {
            "name" : "Plane.5744",
            "primitives" : [
                {
                    "attributes" : {
                        "POSITION" : 0,
                        "NORMAL" : 1,
                        "TEXCOORD_0" : 2
                    },
                    "indices" : 3
                }
            ]
        }
    ],
    "accessors" : [
        {
            "bufferView" : 0,
            "componentType" : 5126,
            "count" : 3000,
            "max" : [
                0.5824139714241028,
                0.5708163976669312,
                0.12214475870132446
            ],
            "min" : [
                -0.5887047052383423,
                -0.557466983795166,
                -0.008533562533557415
            ],
            "type" : "VEC3"
        },
        {
            "bufferView" : 1,
            "componentType" : 5126,
            "count" : 3000,
            "type" : "VEC3"
        },
        {
            "bufferView" : 2,
            "componentType" : 5126,
            "count" : 3000,
            "type" : "VEC2"
        },
        {
            "bufferView" : 3,
            "componentType" : 5123,
            "count" : 5400,
            "type" : "SCALAR"
        }
    ],
    "bufferViews" : [
        {
            "buffer" : 0,
            "byteLength" : 36000,
            "byteOffset" : 0
        },
        {
            "buffer" : 0,
            "byteLength" : 36000,
            "byteOffset" : 36000
        },
        {
            "buffer" : 0,
            "byteLength" : 24000,
            "byteOffset" : 72000
        },
        {
            "buffer" : 0,
            "byteLength" : 10800,
            "byteOffset" : 96000
        }
    ],
    "buffers" : [
        {
            "byteLength" : 106800,
            "uri" : "data:application/octet-stream;base64,"
        }
    ]
}
